<mxfile host="Electron" agent="Mozilla/5.0 (Macintosh; Intel Mac OS X 10_15_7) AppleWebKit/537.36 (KHTML, like Gecko) draw.io/28.0.6 Chrome/138.0.7204.100 Electron/37.2.3 Safari/537.36" version="28.0.6">
  <diagram name="第 1 页" id="CP1l-I9aSzzodNKM472M">
    <mxGraphModel dx="3679" dy="1824" grid="1" gridSize="10" guides="1" tooltips="1" connect="1" arrows="1" fold="1" page="1" pageScale="1" pageWidth="827" pageHeight="1169" math="0" shadow="0">
      <root>
        <mxCell id="0" />
        <mxCell id="1" parent="0" />
        <mxCell id="6bt3RpJwYWjlod0nyT7_-38" value="" style="rounded=0;whiteSpace=wrap;html=1;" vertex="1" parent="1">
          <mxGeometry x="880" y="270" width="320" height="520" as="geometry" />
        </mxCell>
        <mxCell id="6bt3RpJwYWjlod0nyT7_-3" value="&lt;font style=&quot;&quot;&gt;Transaction System&lt;/font&gt;" style="rounded=0;whiteSpace=wrap;html=1;verticalAlign=top;fontSize=20;fontStyle=1;fillColor=#B0AAC4;fontColor=#000000;strokeColor=#FFFFFF;" vertex="1" parent="1">
          <mxGeometry x="20" y="270" width="320" height="520" as="geometry" />
        </mxCell>
        <mxCell id="6bt3RpJwYWjlod0nyT7_-1" value="undo日志相关结构" style="rounded=1;whiteSpace=wrap;html=1;fontSize=50;fontStyle=1" vertex="1" parent="1">
          <mxGeometry x="1728" width="680" height="80" as="geometry" />
        </mxCell>
        <mxCell id="6bt3RpJwYWjlod0nyT7_-4" value="&lt;font style=&quot;font-size: 14px;&quot;&gt;&lt;b style=&quot;&quot;&gt;系统表空间页号为5的页面(页面类型为TRX_SYS)&lt;/b&gt;&lt;/font&gt;" style="text;html=1;align=center;verticalAlign=middle;whiteSpace=wrap;rounded=0;" vertex="1" parent="1">
          <mxGeometry x="20" y="220" width="320" height="50" as="geometry" />
        </mxCell>
        <mxCell id="6bt3RpJwYWjlod0nyT7_-5" value="" style="rounded=0;whiteSpace=wrap;html=1;" vertex="1" parent="1">
          <mxGeometry x="20" y="410" width="320" height="200" as="geometry" />
        </mxCell>
        <mxCell id="6bt3RpJwYWjlod0nyT7_-26" style="rounded=0;orthogonalLoop=1;jettySize=auto;html=1;exitX=0;exitY=0;exitDx=0;exitDy=0;entryX=1;entryY=0;entryDx=0;entryDy=0;" edge="1" parent="1" source="6bt3RpJwYWjlod0nyT7_-6" target="6bt3RpJwYWjlod0nyT7_-24">
          <mxGeometry relative="1" as="geometry" />
        </mxCell>
        <mxCell id="6bt3RpJwYWjlod0nyT7_-6" value="" style="rounded=0;whiteSpace=wrap;html=1;fillColor=#383A72;strokeColor=#000000;strokeWidth=2;" vertex="1" parent="1">
          <mxGeometry x="20" y="410" width="80" height="40" as="geometry" />
        </mxCell>
        <mxCell id="6bt3RpJwYWjlod0nyT7_-8" value="" style="rounded=0;whiteSpace=wrap;html=1;fillColor=#383A72;strokeColor=#000000;strokeWidth=2;" vertex="1" parent="1">
          <mxGeometry x="100" y="410" width="80" height="40" as="geometry" />
        </mxCell>
        <mxCell id="6bt3RpJwYWjlod0nyT7_-9" value="" style="rounded=0;whiteSpace=wrap;html=1;fillColor=#383A72;strokeColor=#000000;strokeWidth=2;" vertex="1" parent="1">
          <mxGeometry x="180" y="410" width="80" height="40" as="geometry" />
        </mxCell>
        <mxCell id="6bt3RpJwYWjlod0nyT7_-10" value="" style="rounded=0;whiteSpace=wrap;html=1;fillColor=#383A72;strokeColor=#000000;strokeWidth=2;" vertex="1" parent="1">
          <mxGeometry x="260" y="410" width="80" height="40" as="geometry" />
        </mxCell>
        <mxCell id="6bt3RpJwYWjlod0nyT7_-11" value="" style="rounded=0;whiteSpace=wrap;html=1;fillColor=#383A72;strokeColor=#000000;strokeWidth=2;" vertex="1" parent="1">
          <mxGeometry x="20" y="450" width="80" height="40" as="geometry" />
        </mxCell>
        <mxCell id="6bt3RpJwYWjlod0nyT7_-12" value="" style="rounded=0;whiteSpace=wrap;html=1;fillColor=#383A72;strokeColor=#000000;strokeWidth=2;" vertex="1" parent="1">
          <mxGeometry x="100" y="450" width="80" height="40" as="geometry" />
        </mxCell>
        <mxCell id="6bt3RpJwYWjlod0nyT7_-13" value="" style="rounded=0;whiteSpace=wrap;html=1;fillColor=#383A72;strokeColor=#000000;strokeWidth=2;" vertex="1" parent="1">
          <mxGeometry x="180" y="450" width="80" height="40" as="geometry" />
        </mxCell>
        <mxCell id="6bt3RpJwYWjlod0nyT7_-36" style="rounded=0;orthogonalLoop=1;jettySize=auto;html=1;exitX=1;exitY=1;exitDx=0;exitDy=0;entryX=0;entryY=1;entryDx=0;entryDy=0;" edge="1" parent="1" source="6bt3RpJwYWjlod0nyT7_-14" target="6bt3RpJwYWjlod0nyT7_-29">
          <mxGeometry relative="1" as="geometry" />
        </mxCell>
        <mxCell id="6bt3RpJwYWjlod0nyT7_-14" value="" style="rounded=0;whiteSpace=wrap;html=1;fillColor=#383A72;strokeColor=#000000;strokeWidth=2;" vertex="1" parent="1">
          <mxGeometry x="260" y="450" width="80" height="40" as="geometry" />
        </mxCell>
        <mxCell id="6bt3RpJwYWjlod0nyT7_-27" style="rounded=0;orthogonalLoop=1;jettySize=auto;html=1;exitX=0;exitY=1;exitDx=0;exitDy=0;entryX=1;entryY=1;entryDx=0;entryDy=0;" edge="1" parent="1" source="6bt3RpJwYWjlod0nyT7_-15" target="6bt3RpJwYWjlod0nyT7_-24">
          <mxGeometry relative="1" as="geometry" />
        </mxCell>
        <mxCell id="6bt3RpJwYWjlod0nyT7_-15" value="" style="rounded=0;whiteSpace=wrap;html=1;fillColor=#383A72;strokeColor=#000000;strokeWidth=2;" vertex="1" parent="1">
          <mxGeometry x="20" y="570" width="80" height="40" as="geometry" />
        </mxCell>
        <mxCell id="6bt3RpJwYWjlod0nyT7_-16" value="" style="rounded=0;whiteSpace=wrap;html=1;fillColor=#383A72;strokeColor=#000000;strokeWidth=2;" vertex="1" parent="1">
          <mxGeometry x="100" y="570" width="80" height="40" as="geometry" />
        </mxCell>
        <mxCell id="6bt3RpJwYWjlod0nyT7_-17" value="" style="rounded=0;whiteSpace=wrap;html=1;fillColor=#383A72;strokeColor=#000000;strokeWidth=2;" vertex="1" parent="1">
          <mxGeometry x="180" y="570" width="80" height="40" as="geometry" />
        </mxCell>
        <mxCell id="6bt3RpJwYWjlod0nyT7_-18" value="" style="rounded=0;whiteSpace=wrap;html=1;fillColor=#383A72;strokeColor=#000000;strokeWidth=2;" vertex="1" parent="1">
          <mxGeometry x="260" y="570" width="80" height="40" as="geometry" />
        </mxCell>
        <mxCell id="6bt3RpJwYWjlod0nyT7_-19" value="" style="rounded=0;whiteSpace=wrap;html=1;fillColor=#383A72;strokeColor=#000000;strokeWidth=2;" vertex="1" parent="1">
          <mxGeometry x="20" y="530" width="80" height="40" as="geometry" />
        </mxCell>
        <mxCell id="6bt3RpJwYWjlod0nyT7_-20" value="" style="rounded=0;whiteSpace=wrap;html=1;fillColor=#383A72;strokeColor=#000000;strokeWidth=2;" vertex="1" parent="1">
          <mxGeometry x="100" y="530" width="80" height="40" as="geometry" />
        </mxCell>
        <mxCell id="6bt3RpJwYWjlod0nyT7_-21" value="" style="rounded=0;whiteSpace=wrap;html=1;fillColor=#383A72;strokeColor=#000000;strokeWidth=2;" vertex="1" parent="1">
          <mxGeometry x="180" y="530" width="80" height="40" as="geometry" />
        </mxCell>
        <mxCell id="6bt3RpJwYWjlod0nyT7_-22" value="" style="rounded=0;whiteSpace=wrap;html=1;fillColor=#383A72;strokeColor=#000000;strokeWidth=2;" vertex="1" parent="1">
          <mxGeometry x="260" y="530" width="80" height="40" as="geometry" />
        </mxCell>
        <mxCell id="6bt3RpJwYWjlod0nyT7_-23" value="&lt;font style=&quot;font-size: 20px;&quot;&gt;...&lt;/font&gt;" style="rounded=0;whiteSpace=wrap;html=1;fillColor=#383A72;strokeColor=#000000;strokeWidth=2;" vertex="1" parent="1">
          <mxGeometry x="20" y="490" width="320" height="40" as="geometry" />
        </mxCell>
        <mxCell id="6bt3RpJwYWjlod0nyT7_-24" value="&lt;font style=&quot;font-size: 20px; color: rgb(0, 0, 0);&quot;&gt;&lt;b&gt;共128个格子&lt;/b&gt;&lt;/font&gt;&lt;div&gt;&lt;font style=&quot;font-size: 20px; color: rgb(0, 0, 0);&quot;&gt;&lt;b&gt;每个格子指代1个Rollback Segment Header&lt;/b&gt;&lt;/font&gt;&lt;div&gt;&lt;font style=&quot;font-size: 20px; color: rgb(0, 0, 0);&quot;&gt;&lt;b&gt;每个格子占8字节&lt;/b&gt;&lt;/font&gt;&lt;/div&gt;&lt;/div&gt;" style="rounded=1;whiteSpace=wrap;html=1;align=left;verticalAlign=top;fillColor=#8E827A;" vertex="1" parent="1">
          <mxGeometry x="-540" y="470" width="420" height="80" as="geometry" />
        </mxCell>
        <mxCell id="6bt3RpJwYWjlod0nyT7_-57" style="rounded=0;orthogonalLoop=1;jettySize=auto;html=1;exitX=1;exitY=0;exitDx=0;exitDy=0;entryX=0;entryY=0;entryDx=0;entryDy=0;" edge="1" parent="1" source="6bt3RpJwYWjlod0nyT7_-28" target="6bt3RpJwYWjlod0nyT7_-39">
          <mxGeometry relative="1" as="geometry" />
        </mxCell>
        <mxCell id="6bt3RpJwYWjlod0nyT7_-28" value="&lt;font style=&quot;font-size: 20px;&quot;&gt;&lt;b&gt;Space ID&lt;/b&gt;&lt;/font&gt;" style="rounded=0;whiteSpace=wrap;html=1;fillColor=#383A72;strokeColor=#000000;strokeWidth=2;" vertex="1" parent="1">
          <mxGeometry x="474" y="435" width="210" height="40" as="geometry" />
        </mxCell>
        <mxCell id="6bt3RpJwYWjlod0nyT7_-58" style="rounded=0;orthogonalLoop=1;jettySize=auto;html=1;exitX=1;exitY=1;exitDx=0;exitDy=0;entryX=0;entryY=1;entryDx=0;entryDy=0;" edge="1" parent="1" source="6bt3RpJwYWjlod0nyT7_-29" target="6bt3RpJwYWjlod0nyT7_-46">
          <mxGeometry relative="1" as="geometry" />
        </mxCell>
        <mxCell id="6bt3RpJwYWjlod0nyT7_-29" value="&lt;font style=&quot;font-size: 20px;&quot;&gt;&lt;b&gt;Page Number&lt;/b&gt;&lt;/font&gt;" style="rounded=0;whiteSpace=wrap;html=1;fillColor=#383A72;strokeColor=#000000;strokeWidth=2;" vertex="1" parent="1">
          <mxGeometry x="474" y="475" width="210" height="40" as="geometry" />
        </mxCell>
        <mxCell id="6bt3RpJwYWjlod0nyT7_-30" value="&lt;b&gt;&lt;font style=&quot;font-size: 16px;&quot;&gt;0B&lt;/font&gt;&lt;/b&gt;" style="text;html=1;align=right;verticalAlign=top;whiteSpace=wrap;rounded=0;fontSize=20;" vertex="1" parent="1">
          <mxGeometry x="414" y="415" width="60" height="30" as="geometry" />
        </mxCell>
        <mxCell id="6bt3RpJwYWjlod0nyT7_-31" value="&lt;b&gt;&lt;font style=&quot;font-size: 16px;&quot;&gt;4B&lt;/font&gt;&lt;/b&gt;" style="text;html=1;align=right;verticalAlign=top;whiteSpace=wrap;rounded=0;fontSize=20;" vertex="1" parent="1">
          <mxGeometry x="414" y="455" width="60" height="30" as="geometry" />
        </mxCell>
        <mxCell id="6bt3RpJwYWjlod0nyT7_-32" value="&lt;b&gt;&lt;font style=&quot;font-size: 16px;&quot;&gt;8B&lt;/font&gt;&lt;/b&gt;" style="text;html=1;align=right;verticalAlign=top;whiteSpace=wrap;rounded=0;fontSize=20;" vertex="1" parent="1">
          <mxGeometry x="414" y="495" width="60" height="30" as="geometry" />
        </mxCell>
        <mxCell id="6bt3RpJwYWjlod0nyT7_-35" style="rounded=0;orthogonalLoop=1;jettySize=auto;html=1;exitX=1;exitY=0;exitDx=0;exitDy=0;entryX=0.038;entryY=0.075;entryDx=0;entryDy=0;entryPerimeter=0;" edge="1" parent="1" source="6bt3RpJwYWjlod0nyT7_-14" target="6bt3RpJwYWjlod0nyT7_-28">
          <mxGeometry relative="1" as="geometry" />
        </mxCell>
        <mxCell id="6bt3RpJwYWjlod0nyT7_-39" value="&lt;font style=&quot;font-size: 20px;&quot;&gt;&lt;b&gt;File Header&lt;/b&gt;&lt;/font&gt;" style="rounded=0;whiteSpace=wrap;html=1;fillColor=#B0AAC4;textShadow=1;fontColor=#000000;" vertex="1" parent="1">
          <mxGeometry x="880" y="270" width="320" height="60" as="geometry" />
        </mxCell>
        <mxCell id="6bt3RpJwYWjlod0nyT7_-40" value="&lt;span style=&quot;font-size: 20px;&quot;&gt;&lt;span&gt;TRX_RSEG_MAX_SIZE&lt;/span&gt;&lt;/span&gt;" style="rounded=0;whiteSpace=wrap;html=1;fillColor=#383A72;textShadow=1;fontColor=#FFFFFF;fontStyle=1" vertex="1" parent="1">
          <mxGeometry x="880" y="330" width="320" height="30" as="geometry" />
        </mxCell>
        <mxCell id="6bt3RpJwYWjlod0nyT7_-41" value="&lt;span style=&quot;font-size: 20px;&quot;&gt;TRX_RSEG_HISTORY_SIZE&lt;/span&gt;" style="rounded=0;whiteSpace=wrap;html=1;fillColor=#565285;textShadow=1;fontColor=#FFFFFF;fontStyle=1" vertex="1" parent="1">
          <mxGeometry x="880" y="360" width="320" height="30" as="geometry" />
        </mxCell>
        <mxCell id="6bt3RpJwYWjlod0nyT7_-42" value="&lt;span style=&quot;font-size: 20px;&quot;&gt;TRX_RSEG_HISTORY&lt;/span&gt;" style="rounded=0;whiteSpace=wrap;html=1;fillColor=#1E2964;textShadow=1;fontColor=#FFFFFF;fontStyle=1" vertex="1" parent="1">
          <mxGeometry x="880" y="390" width="320" height="40" as="geometry" />
        </mxCell>
        <mxCell id="6bt3RpJwYWjlod0nyT7_-43" value="&lt;span style=&quot;font-size: 20px;&quot;&gt;TRX_RSEG_FSEG_HEADER&lt;/span&gt;" style="rounded=0;whiteSpace=wrap;html=1;fillColor=#C9C3BF;textShadow=1;fontColor=#000000;fontStyle=1" vertex="1" parent="1">
          <mxGeometry x="880" y="430" width="320" height="35" as="geometry" />
        </mxCell>
        <mxCell id="6bt3RpJwYWjlod0nyT7_-67" style="rounded=0;orthogonalLoop=1;jettySize=auto;html=1;exitX=1;exitY=0;exitDx=0;exitDy=0;entryX=0;entryY=1;entryDx=0;entryDy=0;" edge="1" parent="1" source="6bt3RpJwYWjlod0nyT7_-44" target="6bt3RpJwYWjlod0nyT7_-64">
          <mxGeometry relative="1" as="geometry" />
        </mxCell>
        <mxCell id="6bt3RpJwYWjlod0nyT7_-68" style="rounded=0;orthogonalLoop=1;jettySize=auto;html=1;exitX=1;exitY=1;exitDx=0;exitDy=0;entryX=1;entryY=1;entryDx=0;entryDy=0;" edge="1" parent="1" source="6bt3RpJwYWjlod0nyT7_-44" target="6bt3RpJwYWjlod0nyT7_-64">
          <mxGeometry relative="1" as="geometry" />
        </mxCell>
        <mxCell id="6bt3RpJwYWjlod0nyT7_-44" value="&lt;span style=&quot;font-size: 20px;&quot;&gt;TRX_RSEG_UNDO_SLOTS&lt;/span&gt;" style="rounded=0;whiteSpace=wrap;html=1;fillColor=#43403E;textShadow=1;fontColor=#FFFFFF;fontStyle=1" vertex="1" parent="1">
          <mxGeometry x="880" y="465" width="320" height="80" as="geometry" />
        </mxCell>
        <mxCell id="6bt3RpJwYWjlod0nyT7_-45" value="&lt;span style=&quot;font-size: 20px;&quot;&gt;没用&lt;/span&gt;" style="rounded=0;whiteSpace=wrap;html=1;fillColor=#C9C3BF;textShadow=1;fontColor=#000000;fontStyle=1" vertex="1" parent="1">
          <mxGeometry x="880" y="545" width="320" height="215" as="geometry" />
        </mxCell>
        <mxCell id="6bt3RpJwYWjlod0nyT7_-62" style="edgeStyle=orthogonalEdgeStyle;rounded=0;orthogonalLoop=1;jettySize=auto;html=1;exitX=0.5;exitY=1;exitDx=0;exitDy=0;entryX=0.5;entryY=0;entryDx=0;entryDy=0;dashed=1;" edge="1" parent="1" source="6bt3RpJwYWjlod0nyT7_-46" target="6bt3RpJwYWjlod0nyT7_-61">
          <mxGeometry relative="1" as="geometry" />
        </mxCell>
        <mxCell id="6bt3RpJwYWjlod0nyT7_-46" value="&lt;span style=&quot;font-size: 20px;&quot;&gt;File Trailer&lt;/span&gt;" style="rounded=0;whiteSpace=wrap;html=1;fillColor=#6C615A;textShadow=1;fontColor=#FFFFFF;fontStyle=1" vertex="1" parent="1">
          <mxGeometry x="880" y="760" width="320" height="30" as="geometry" />
        </mxCell>
        <mxCell id="6bt3RpJwYWjlod0nyT7_-47" value="&lt;b&gt;&lt;font style=&quot;font-size: 16px;&quot;&gt;0B&lt;/font&gt;&lt;/b&gt;" style="text;html=1;align=right;verticalAlign=top;whiteSpace=wrap;rounded=0;fontSize=20;" vertex="1" parent="1">
          <mxGeometry x="820" y="250" width="60" height="30" as="geometry" />
        </mxCell>
        <mxCell id="6bt3RpJwYWjlod0nyT7_-48" value="&lt;b&gt;&lt;font style=&quot;font-size: 16px;&quot;&gt;38B&lt;/font&gt;&lt;/b&gt;" style="text;html=1;align=right;verticalAlign=top;whiteSpace=wrap;rounded=0;fontSize=20;" vertex="1" parent="1">
          <mxGeometry x="820" y="310" width="60" height="30" as="geometry" />
        </mxCell>
        <mxCell id="6bt3RpJwYWjlod0nyT7_-49" value="&lt;b&gt;&lt;font style=&quot;font-size: 16px;&quot;&gt;42B&lt;/font&gt;&lt;/b&gt;" style="text;html=1;align=right;verticalAlign=top;whiteSpace=wrap;rounded=0;fontSize=20;" vertex="1" parent="1">
          <mxGeometry x="820" y="340" width="60" height="30" as="geometry" />
        </mxCell>
        <mxCell id="6bt3RpJwYWjlod0nyT7_-50" value="&lt;b&gt;&lt;font style=&quot;font-size: 16px;&quot;&gt;46B&lt;/font&gt;&lt;/b&gt;" style="text;html=1;align=right;verticalAlign=top;whiteSpace=wrap;rounded=0;fontSize=20;" vertex="1" parent="1">
          <mxGeometry x="820" y="370" width="60" height="30" as="geometry" />
        </mxCell>
        <mxCell id="6bt3RpJwYWjlod0nyT7_-51" value="&lt;b&gt;&lt;font style=&quot;font-size: 16px;&quot;&gt;62B&lt;/font&gt;&lt;/b&gt;" style="text;html=1;align=right;verticalAlign=top;whiteSpace=wrap;rounded=0;fontSize=20;" vertex="1" parent="1">
          <mxGeometry x="820" y="410" width="60" height="30" as="geometry" />
        </mxCell>
        <mxCell id="6bt3RpJwYWjlod0nyT7_-52" value="&lt;b&gt;&lt;font style=&quot;font-size: 16px;&quot;&gt;72B&lt;/font&gt;&lt;/b&gt;" style="text;html=1;align=right;verticalAlign=top;whiteSpace=wrap;rounded=0;fontSize=20;" vertex="1" parent="1">
          <mxGeometry x="820" y="450" width="60" height="30" as="geometry" />
        </mxCell>
        <mxCell id="6bt3RpJwYWjlod0nyT7_-53" value="&lt;b&gt;&lt;font style=&quot;font-size: 16px;&quot;&gt;4168B&lt;/font&gt;&lt;/b&gt;" style="text;html=1;align=right;verticalAlign=top;whiteSpace=wrap;rounded=0;fontSize=20;" vertex="1" parent="1">
          <mxGeometry x="820" y="530" width="60" height="30" as="geometry" />
        </mxCell>
        <mxCell id="6bt3RpJwYWjlod0nyT7_-54" value="&lt;b&gt;&lt;font style=&quot;font-size: 16px;&quot;&gt;16376B&lt;/font&gt;&lt;/b&gt;" style="text;html=1;align=right;verticalAlign=top;whiteSpace=wrap;rounded=0;fontSize=20;" vertex="1" parent="1">
          <mxGeometry x="820" y="740" width="60" height="30" as="geometry" />
        </mxCell>
        <mxCell id="6bt3RpJwYWjlod0nyT7_-55" value="&lt;b&gt;&lt;font style=&quot;font-size: 16px;&quot;&gt;16KB&lt;/font&gt;&lt;/b&gt;" style="text;html=1;align=right;verticalAlign=top;whiteSpace=wrap;rounded=0;fontSize=20;" vertex="1" parent="1">
          <mxGeometry x="820" y="770" width="60" height="30" as="geometry" />
        </mxCell>
        <mxCell id="6bt3RpJwYWjlod0nyT7_-56" value="FIL_PAGE_TYPE_SYS" style="text;html=1;align=center;verticalAlign=middle;whiteSpace=wrap;rounded=0;fontStyle=1;fontSize=20;" vertex="1" parent="1">
          <mxGeometry x="880" y="220" width="320" height="50" as="geometry" />
        </mxCell>
        <mxCell id="6bt3RpJwYWjlod0nyT7_-61" value="&lt;font style=&quot;font-size: 14px; color: rgb(0, 0, 0);&quot;&gt;&lt;span style=&quot;font-weight: 700; text-align: center;&quot;&gt;Rollback Segment Header是一种结构,该结构的大小为16KB,因此需要1个页面来存储1个&lt;/span&gt;&lt;span style=&quot;font-weight: 700; text-align: center;&quot;&gt;Rollback Segment Header.存储该结构的页面类型为&lt;/span&gt;&lt;b style=&quot;&quot;&gt;FIL_PAGE_TYPE_SYS.&lt;/b&gt;&lt;/font&gt;" style="rounded=1;whiteSpace=wrap;html=1;align=left;verticalAlign=top;fillColor=#8E827A;" vertex="1" parent="1">
          <mxGeometry x="880" y="920" width="320" height="80" as="geometry" />
        </mxCell>
        <mxCell id="6bt3RpJwYWjlod0nyT7_-83" style="rounded=0;orthogonalLoop=1;jettySize=auto;html=1;exitX=1;exitY=0;exitDx=0;exitDy=0;entryX=0;entryY=1;entryDx=0;entryDy=0;" edge="1" parent="1" source="6bt3RpJwYWjlod0nyT7_-64" target="6bt3RpJwYWjlod0nyT7_-71">
          <mxGeometry relative="1" as="geometry" />
        </mxCell>
        <mxCell id="6bt3RpJwYWjlod0nyT7_-64" value="Undo Slot" style="rounded=0;whiteSpace=wrap;html=1;fillColor=#383A72;strokeColor=#000000;strokeWidth=2;fontStyle=1;fontSize=16;direction=south;" vertex="1" parent="1">
          <mxGeometry x="1400" y="500" width="110" height="30" as="geometry" />
        </mxCell>
        <mxCell id="6bt3RpJwYWjlod0nyT7_-65" value="&lt;b&gt;&lt;font style=&quot;font-size: 16px;&quot;&gt;0B&lt;/font&gt;&lt;/b&gt;" style="text;html=1;align=right;verticalAlign=top;whiteSpace=wrap;rounded=0;fontSize=20;" vertex="1" parent="1">
          <mxGeometry x="1340" y="480" width="60" height="30" as="geometry" />
        </mxCell>
        <mxCell id="6bt3RpJwYWjlod0nyT7_-66" value="&lt;b&gt;&lt;font style=&quot;font-size: 16px;&quot;&gt;4B&lt;/font&gt;&lt;/b&gt;" style="text;html=1;align=right;verticalAlign=top;whiteSpace=wrap;rounded=0;fontSize=20;" vertex="1" parent="1">
          <mxGeometry x="1340" y="510" width="60" height="30" as="geometry" />
        </mxCell>
        <mxCell id="6bt3RpJwYWjlod0nyT7_-69" value="" style="rounded=0;whiteSpace=wrap;html=1;" vertex="1" parent="1">
          <mxGeometry x="1800" y="270" width="320" height="520" as="geometry" />
        </mxCell>
        <mxCell id="6bt3RpJwYWjlod0nyT7_-70" value="&lt;font style=&quot;font-size: 20px;&quot;&gt;&lt;b&gt;File Header&lt;/b&gt;&lt;/font&gt;" style="rounded=0;whiteSpace=wrap;html=1;fillColor=#B0AAC4;textShadow=1;fontColor=#000000;" vertex="1" parent="1">
          <mxGeometry x="1800" y="270" width="320" height="60" as="geometry" />
        </mxCell>
        <mxCell id="6bt3RpJwYWjlod0nyT7_-71" value="&lt;span style=&quot;font-size: 20px;&quot;&gt;File Trailer&lt;/span&gt;" style="rounded=0;whiteSpace=wrap;html=1;fillColor=#6C615A;textShadow=1;fontColor=#FFFFFF;fontStyle=1" vertex="1" parent="1">
          <mxGeometry x="1800" y="759" width="320" height="30" as="geometry" />
        </mxCell>
        <mxCell id="6bt3RpJwYWjlod0nyT7_-93" style="rounded=0;orthogonalLoop=1;jettySize=auto;html=1;exitX=1;exitY=0;exitDx=0;exitDy=0;entryX=0;entryY=0;entryDx=0;entryDy=0;" edge="1" parent="1" source="6bt3RpJwYWjlod0nyT7_-72" target="6bt3RpJwYWjlod0nyT7_-84">
          <mxGeometry relative="1" as="geometry" />
        </mxCell>
        <mxCell id="6bt3RpJwYWjlod0nyT7_-129" style="rounded=0;orthogonalLoop=1;jettySize=auto;html=1;exitX=1;exitY=0.25;exitDx=0;exitDy=0;entryX=0;entryY=0.25;entryDx=0;entryDy=0;" edge="1" parent="1" source="6bt3RpJwYWjlod0nyT7_-72" target="6bt3RpJwYWjlod0nyT7_-109">
          <mxGeometry relative="1" as="geometry">
            <mxPoint x="2640" y="343" as="targetPoint" />
          </mxGeometry>
        </mxCell>
        <mxCell id="6bt3RpJwYWjlod0nyT7_-72" value="&lt;span style=&quot;font-size: 20px;&quot;&gt;&lt;span&gt;Undo Page Header&lt;/span&gt;&lt;/span&gt;" style="rounded=0;whiteSpace=wrap;html=1;fillColor=#383A72;textShadow=1;fontColor=#FFFFFF;fontStyle=1" vertex="1" parent="1">
          <mxGeometry x="1800" y="330" width="320" height="50" as="geometry" />
        </mxCell>
        <mxCell id="6bt3RpJwYWjlod0nyT7_-94" style="rounded=0;orthogonalLoop=1;jettySize=auto;html=1;exitX=1;exitY=0;exitDx=0;exitDy=0;entryX=0;entryY=1;entryDx=0;entryDy=0;" edge="1" parent="1" source="6bt3RpJwYWjlod0nyT7_-73" target="6bt3RpJwYWjlod0nyT7_-87">
          <mxGeometry relative="1" as="geometry" />
        </mxCell>
        <mxCell id="6bt3RpJwYWjlod0nyT7_-104" style="rounded=0;orthogonalLoop=1;jettySize=auto;html=1;exitX=1;exitY=0;exitDx=0;exitDy=0;entryX=0;entryY=0;entryDx=0;entryDy=0;" edge="1" parent="1" source="6bt3RpJwYWjlod0nyT7_-73" target="6bt3RpJwYWjlod0nyT7_-95">
          <mxGeometry relative="1" as="geometry" />
        </mxCell>
        <mxCell id="6bt3RpJwYWjlod0nyT7_-73" value="&lt;span style=&quot;font-size: 20px;&quot;&gt;Undo Log Segment Header&lt;/span&gt;" style="rounded=0;whiteSpace=wrap;html=1;fillColor=#565285;textShadow=1;fontColor=#FFFFFF;fontStyle=1" vertex="1" parent="1">
          <mxGeometry x="1801" y="380" width="318" height="60" as="geometry" />
        </mxCell>
        <mxCell id="6bt3RpJwYWjlod0nyT7_-105" style="rounded=0;orthogonalLoop=1;jettySize=auto;html=1;exitX=1;exitY=0;exitDx=0;exitDy=0;entryX=0;entryY=1;entryDx=0;entryDy=0;" edge="1" parent="1" source="6bt3RpJwYWjlod0nyT7_-74" target="6bt3RpJwYWjlod0nyT7_-98">
          <mxGeometry relative="1" as="geometry" />
        </mxCell>
        <mxCell id="6bt3RpJwYWjlod0nyT7_-74" value="" style="rounded=0;whiteSpace=wrap;html=1;fillColor=#C9C3BF;textShadow=1;fontColor=#000000;fontStyle=1" vertex="1" parent="1">
          <mxGeometry x="1800" y="440" width="320" height="320" as="geometry" />
        </mxCell>
        <mxCell id="6bt3RpJwYWjlod0nyT7_-75" value="&lt;b&gt;&lt;font style=&quot;font-size: 16px;&quot;&gt;0B&lt;/font&gt;&lt;/b&gt;" style="text;html=1;align=right;verticalAlign=top;whiteSpace=wrap;rounded=0;fontSize=20;" vertex="1" parent="1">
          <mxGeometry x="1741" y="250" width="60" height="30" as="geometry" />
        </mxCell>
        <mxCell id="6bt3RpJwYWjlod0nyT7_-76" value="&lt;b&gt;&lt;font style=&quot;font-size: 16px;&quot;&gt;38B&lt;/font&gt;&lt;/b&gt;" style="text;html=1;align=right;verticalAlign=top;whiteSpace=wrap;rounded=0;fontSize=20;" vertex="1" parent="1">
          <mxGeometry x="1741" y="310" width="60" height="30" as="geometry" />
        </mxCell>
        <mxCell id="6bt3RpJwYWjlod0nyT7_-77" value="&lt;b&gt;&lt;font style=&quot;font-size: 16px;&quot;&gt;56B&lt;/font&gt;&lt;/b&gt;" style="text;html=1;align=right;verticalAlign=top;whiteSpace=wrap;rounded=0;fontSize=20;" vertex="1" parent="1">
          <mxGeometry x="1740" y="360" width="60" height="30" as="geometry" />
        </mxCell>
        <mxCell id="6bt3RpJwYWjlod0nyT7_-78" value="&lt;b&gt;&lt;font style=&quot;font-size: 16px;&quot;&gt;86B&lt;/font&gt;&lt;/b&gt;" style="text;html=1;align=right;verticalAlign=top;whiteSpace=wrap;rounded=0;fontSize=20;" vertex="1" parent="1">
          <mxGeometry x="1740" y="420" width="60" height="30" as="geometry" />
        </mxCell>
        <mxCell id="6bt3RpJwYWjlod0nyT7_-79" value="&lt;b&gt;&lt;font style=&quot;font-size: 16px;&quot;&gt;16376B&lt;/font&gt;&lt;/b&gt;" style="text;html=1;align=right;verticalAlign=top;whiteSpace=wrap;rounded=0;fontSize=20;" vertex="1" parent="1">
          <mxGeometry x="1741" y="740" width="60" height="30" as="geometry" />
        </mxCell>
        <mxCell id="6bt3RpJwYWjlod0nyT7_-80" value="&lt;b&gt;&lt;font style=&quot;font-size: 16px;&quot;&gt;16KB&lt;/font&gt;&lt;/b&gt;" style="text;html=1;align=right;verticalAlign=top;whiteSpace=wrap;rounded=0;fontSize=20;" vertex="1" parent="1">
          <mxGeometry x="1741" y="770" width="60" height="30" as="geometry" />
        </mxCell>
        <mxCell id="6bt3RpJwYWjlod0nyT7_-81" value="FIL_PAGE_UNDO_LOG" style="text;html=1;align=center;verticalAlign=middle;whiteSpace=wrap;rounded=0;fontStyle=1;fontSize=20;" vertex="1" parent="1">
          <mxGeometry x="1800" y="220" width="320" height="50" as="geometry" />
        </mxCell>
        <mxCell id="6bt3RpJwYWjlod0nyT7_-82" style="rounded=0;orthogonalLoop=1;jettySize=auto;html=1;exitX=0;exitY=0;exitDx=0;exitDy=0;entryX=0;entryY=1;entryDx=0;entryDy=0;" edge="1" parent="1" source="6bt3RpJwYWjlod0nyT7_-64" target="6bt3RpJwYWjlod0nyT7_-81">
          <mxGeometry relative="1" as="geometry" />
        </mxCell>
        <mxCell id="6bt3RpJwYWjlod0nyT7_-84" value="&lt;span style=&quot;font-size: 20px;&quot;&gt;TRX_UNDO_PAGE_TYPE&lt;/span&gt;" style="rounded=0;whiteSpace=wrap;html=1;fillColor=#383A72;textShadow=1;fontColor=#FFFFFF;fontStyle=1" vertex="1" parent="1">
          <mxGeometry x="2320" y="410" width="320" height="40" as="geometry" />
        </mxCell>
        <mxCell id="6bt3RpJwYWjlod0nyT7_-85" value="&lt;span style=&quot;font-size: 20px;&quot;&gt;TRX_UNDO_PAGE_START&lt;/span&gt;" style="rounded=0;whiteSpace=wrap;html=1;fillColor=#383A72;textShadow=1;fontColor=#FFFFFF;fontStyle=1" vertex="1" parent="1">
          <mxGeometry x="2320" y="450" width="320" height="40" as="geometry" />
        </mxCell>
        <mxCell id="6bt3RpJwYWjlod0nyT7_-86" value="&lt;span style=&quot;font-size: 20px;&quot;&gt;TRX_UNDO_PAGE_FREE&lt;/span&gt;" style="rounded=0;whiteSpace=wrap;html=1;fillColor=#383A72;textShadow=1;fontColor=#FFFFFF;fontStyle=1" vertex="1" parent="1">
          <mxGeometry x="2320" y="490" width="320" height="40" as="geometry" />
        </mxCell>
        <mxCell id="6bt3RpJwYWjlod0nyT7_-87" value="&lt;span style=&quot;font-size: 20px;&quot;&gt;TRX_UNDO_PAGE_NODE&lt;/span&gt;" style="rounded=0;whiteSpace=wrap;html=1;fillColor=#383A72;textShadow=1;fontColor=#FFFFFF;fontStyle=1" vertex="1" parent="1">
          <mxGeometry x="2320" y="530" width="320" height="100" as="geometry" />
        </mxCell>
        <mxCell id="6bt3RpJwYWjlod0nyT7_-88" value="&lt;b&gt;&lt;font style=&quot;font-size: 16px;&quot;&gt;38B&lt;/font&gt;&lt;/b&gt;" style="text;html=1;align=right;verticalAlign=top;whiteSpace=wrap;rounded=0;fontSize=20;" vertex="1" parent="1">
          <mxGeometry x="2260" y="390" width="60" height="30" as="geometry" />
        </mxCell>
        <mxCell id="6bt3RpJwYWjlod0nyT7_-89" value="&lt;b&gt;&lt;font style=&quot;font-size: 16px;&quot;&gt;56B&lt;/font&gt;&lt;/b&gt;" style="text;html=1;align=right;verticalAlign=top;whiteSpace=wrap;rounded=0;fontSize=20;" vertex="1" parent="1">
          <mxGeometry x="2260" y="610" width="60" height="30" as="geometry" />
        </mxCell>
        <mxCell id="6bt3RpJwYWjlod0nyT7_-90" value="&lt;b&gt;&lt;font style=&quot;font-size: 16px;&quot;&gt;40B&lt;/font&gt;&lt;/b&gt;" style="text;html=1;align=right;verticalAlign=top;whiteSpace=wrap;rounded=0;fontSize=20;" vertex="1" parent="1">
          <mxGeometry x="2260" y="430" width="60" height="30" as="geometry" />
        </mxCell>
        <mxCell id="6bt3RpJwYWjlod0nyT7_-91" value="&lt;b&gt;&lt;font style=&quot;font-size: 16px;&quot;&gt;42B&lt;/font&gt;&lt;/b&gt;" style="text;html=1;align=right;verticalAlign=top;whiteSpace=wrap;rounded=0;fontSize=20;" vertex="1" parent="1">
          <mxGeometry x="2260" y="470" width="60" height="30" as="geometry" />
        </mxCell>
        <mxCell id="6bt3RpJwYWjlod0nyT7_-92" value="&lt;b&gt;&lt;font style=&quot;font-size: 16px;&quot;&gt;44B&lt;/font&gt;&lt;/b&gt;" style="text;html=1;align=right;verticalAlign=top;whiteSpace=wrap;rounded=0;fontSize=20;" vertex="1" parent="1">
          <mxGeometry x="2260" y="510" width="60" height="30" as="geometry" />
        </mxCell>
        <mxCell id="6bt3RpJwYWjlod0nyT7_-95" value="&lt;span style=&quot;font-size: 20px;&quot;&gt;TRX_UNDO_STATE&lt;/span&gt;" style="rounded=0;whiteSpace=wrap;html=1;fillColor=#565285;textShadow=1;fontColor=#FFFFFF;fontStyle=1" vertex="1" parent="1">
          <mxGeometry x="2320" y="800" width="320" height="40" as="geometry" />
        </mxCell>
        <mxCell id="6bt3RpJwYWjlod0nyT7_-96" value="&lt;span style=&quot;font-size: 20px;&quot;&gt;TRX_UNDO_LAST_LOG&lt;/span&gt;" style="rounded=0;whiteSpace=wrap;html=1;fillColor=#565285;textShadow=1;fontColor=#FFFFFF;fontStyle=1" vertex="1" parent="1">
          <mxGeometry x="2320" y="840" width="320" height="40" as="geometry" />
        </mxCell>
        <mxCell id="6bt3RpJwYWjlod0nyT7_-97" value="&lt;span style=&quot;font-size: 20px;&quot;&gt;TRX_UNDO_FSEG_HEADER&lt;/span&gt;" style="rounded=0;whiteSpace=wrap;html=1;fillColor=#565285;textShadow=1;fontColor=#FFFFFF;fontStyle=1" vertex="1" parent="1">
          <mxGeometry x="2320" y="880" width="320" height="70" as="geometry" />
        </mxCell>
        <mxCell id="6bt3RpJwYWjlod0nyT7_-98" value="&lt;span style=&quot;font-size: 20px;&quot;&gt;TRX_UNDO_PAGE_LIST&lt;/span&gt;" style="rounded=0;whiteSpace=wrap;html=1;fillColor=#565285;textShadow=1;fontColor=#FFFFFF;fontStyle=1" vertex="1" parent="1">
          <mxGeometry x="2320" y="950" width="320" height="100" as="geometry" />
        </mxCell>
        <mxCell id="6bt3RpJwYWjlod0nyT7_-99" value="&lt;b&gt;&lt;font style=&quot;font-size: 16px;&quot;&gt;56B&lt;/font&gt;&lt;/b&gt;" style="text;html=1;align=right;verticalAlign=top;whiteSpace=wrap;rounded=0;fontSize=20;" vertex="1" parent="1">
          <mxGeometry x="2260" y="780" width="60" height="30" as="geometry" />
        </mxCell>
        <mxCell id="6bt3RpJwYWjlod0nyT7_-100" value="&lt;b&gt;&lt;font style=&quot;font-size: 16px;&quot;&gt;86B&lt;/font&gt;&lt;/b&gt;" style="text;html=1;align=right;verticalAlign=top;whiteSpace=wrap;rounded=0;fontSize=20;" vertex="1" parent="1">
          <mxGeometry x="2260" y="1030" width="60" height="30" as="geometry" />
        </mxCell>
        <mxCell id="6bt3RpJwYWjlod0nyT7_-101" value="&lt;b&gt;&lt;font style=&quot;font-size: 16px;&quot;&gt;58B&lt;/font&gt;&lt;/b&gt;" style="text;html=1;align=right;verticalAlign=top;whiteSpace=wrap;rounded=0;fontSize=20;" vertex="1" parent="1">
          <mxGeometry x="2260" y="820" width="60" height="30" as="geometry" />
        </mxCell>
        <mxCell id="6bt3RpJwYWjlod0nyT7_-102" value="&lt;b&gt;&lt;font style=&quot;font-size: 16px;&quot;&gt;60B&lt;/font&gt;&lt;/b&gt;" style="text;html=1;align=right;verticalAlign=top;whiteSpace=wrap;rounded=0;fontSize=20;" vertex="1" parent="1">
          <mxGeometry x="2260" y="860" width="60" height="30" as="geometry" />
        </mxCell>
        <mxCell id="6bt3RpJwYWjlod0nyT7_-103" value="&lt;span style=&quot;font-size: 16px;&quot;&gt;&lt;b&gt;70B&lt;/b&gt;&lt;/span&gt;" style="text;html=1;align=right;verticalAlign=top;whiteSpace=wrap;rounded=0;fontSize=20;" vertex="1" parent="1">
          <mxGeometry x="2260" y="930" width="60" height="30" as="geometry" />
        </mxCell>
        <mxCell id="6bt3RpJwYWjlod0nyT7_-106" value="" style="rounded=0;whiteSpace=wrap;html=1;" vertex="1" parent="1">
          <mxGeometry x="2914" y="270" width="320" height="520" as="geometry" />
        </mxCell>
        <mxCell id="6bt3RpJwYWjlod0nyT7_-107" value="&lt;font style=&quot;font-size: 20px;&quot;&gt;&lt;b&gt;File Header&lt;/b&gt;&lt;/font&gt;" style="rounded=0;whiteSpace=wrap;html=1;fillColor=#B0AAC4;textShadow=1;fontColor=#000000;" vertex="1" parent="1">
          <mxGeometry x="2914" y="270" width="320" height="60" as="geometry" />
        </mxCell>
        <mxCell id="6bt3RpJwYWjlod0nyT7_-108" value="&lt;span style=&quot;font-size: 20px;&quot;&gt;File Trailer&lt;/span&gt;" style="rounded=0;whiteSpace=wrap;html=1;fillColor=#6C615A;textShadow=1;fontColor=#FFFFFF;fontStyle=1" vertex="1" parent="1">
          <mxGeometry x="2914" y="759" width="320" height="30" as="geometry" />
        </mxCell>
        <mxCell id="6bt3RpJwYWjlod0nyT7_-130" style="edgeStyle=orthogonalEdgeStyle;rounded=0;orthogonalLoop=1;jettySize=auto;html=1;exitX=0;exitY=0.5;exitDx=0;exitDy=0;entryX=1;entryY=0.5;entryDx=0;entryDy=0;" edge="1" parent="1" source="6bt3RpJwYWjlod0nyT7_-109" target="6bt3RpJwYWjlod0nyT7_-72">
          <mxGeometry relative="1" as="geometry" />
        </mxCell>
        <mxCell id="6bt3RpJwYWjlod0nyT7_-154" style="rounded=0;orthogonalLoop=1;jettySize=auto;html=1;exitX=1;exitY=1;exitDx=0;exitDy=0;entryX=0;entryY=0;entryDx=0;entryDy=0;" edge="1" parent="1" source="6bt3RpJwYWjlod0nyT7_-109" target="6bt3RpJwYWjlod0nyT7_-131">
          <mxGeometry relative="1" as="geometry" />
        </mxCell>
        <mxCell id="6bt3RpJwYWjlod0nyT7_-172" style="edgeStyle=orthogonalEdgeStyle;rounded=0;orthogonalLoop=1;jettySize=auto;html=1;exitX=1;exitY=0.25;exitDx=0;exitDy=0;entryX=0;entryY=0.25;entryDx=0;entryDy=0;" edge="1" parent="1" source="6bt3RpJwYWjlod0nyT7_-109" target="6bt3RpJwYWjlod0nyT7_-159">
          <mxGeometry relative="1" as="geometry" />
        </mxCell>
        <mxCell id="6bt3RpJwYWjlod0nyT7_-109" value="&lt;span style=&quot;font-size: 20px;&quot;&gt;&lt;span&gt;Undo Page Header&lt;/span&gt;&lt;/span&gt;" style="rounded=0;whiteSpace=wrap;html=1;fillColor=#383A72;textShadow=1;fontColor=#FFFFFF;fontStyle=1" vertex="1" parent="1">
          <mxGeometry x="2914" y="330" width="320" height="50" as="geometry" />
        </mxCell>
        <mxCell id="6bt3RpJwYWjlod0nyT7_-111" value="" style="rounded=0;whiteSpace=wrap;html=1;fillColor=#C9C3BF;textShadow=1;fontColor=#000000;fontStyle=1" vertex="1" parent="1">
          <mxGeometry x="2914" y="380" width="320" height="380" as="geometry" />
        </mxCell>
        <mxCell id="6bt3RpJwYWjlod0nyT7_-112" value="&lt;b&gt;&lt;font style=&quot;font-size: 16px;&quot;&gt;0B&lt;/font&gt;&lt;/b&gt;" style="text;html=1;align=right;verticalAlign=top;whiteSpace=wrap;rounded=0;fontSize=20;" vertex="1" parent="1">
          <mxGeometry x="2855" y="250" width="60" height="30" as="geometry" />
        </mxCell>
        <mxCell id="6bt3RpJwYWjlod0nyT7_-113" value="&lt;b&gt;&lt;font style=&quot;font-size: 16px;&quot;&gt;38B&lt;/font&gt;&lt;/b&gt;" style="text;html=1;align=right;verticalAlign=top;whiteSpace=wrap;rounded=0;fontSize=20;" vertex="1" parent="1">
          <mxGeometry x="2855" y="310" width="60" height="30" as="geometry" />
        </mxCell>
        <mxCell id="6bt3RpJwYWjlod0nyT7_-114" value="&lt;b&gt;&lt;font style=&quot;font-size: 16px;&quot;&gt;56B&lt;/font&gt;&lt;/b&gt;" style="text;html=1;align=right;verticalAlign=top;whiteSpace=wrap;rounded=0;fontSize=20;" vertex="1" parent="1">
          <mxGeometry x="2854" y="360" width="60" height="30" as="geometry" />
        </mxCell>
        <mxCell id="6bt3RpJwYWjlod0nyT7_-116" value="&lt;b&gt;&lt;font style=&quot;font-size: 16px;&quot;&gt;16376B&lt;/font&gt;&lt;/b&gt;" style="text;html=1;align=right;verticalAlign=top;whiteSpace=wrap;rounded=0;fontSize=20;" vertex="1" parent="1">
          <mxGeometry x="2855" y="740" width="60" height="30" as="geometry" />
        </mxCell>
        <mxCell id="6bt3RpJwYWjlod0nyT7_-117" value="&lt;b&gt;&lt;font style=&quot;font-size: 16px;&quot;&gt;16KB&lt;/font&gt;&lt;/b&gt;" style="text;html=1;align=right;verticalAlign=top;whiteSpace=wrap;rounded=0;fontSize=20;" vertex="1" parent="1">
          <mxGeometry x="2855" y="770" width="60" height="30" as="geometry" />
        </mxCell>
        <mxCell id="6bt3RpJwYWjlod0nyT7_-118" value="FIL_PAGE_UNDO_LOG" style="text;html=1;align=center;verticalAlign=middle;whiteSpace=wrap;rounded=0;fontStyle=1;fontSize=20;" vertex="1" parent="1">
          <mxGeometry x="2914" y="220" width="320" height="50" as="geometry" />
        </mxCell>
        <mxCell id="6bt3RpJwYWjlod0nyT7_-123" value="&lt;span style=&quot;font-size: 20px;&quot;&gt;Undo Log Header&lt;/span&gt;" style="rounded=0;whiteSpace=wrap;html=1;fillColor=#1E2964;textShadow=1;fontColor=#FFFFFF;fontStyle=1" vertex="1" parent="1">
          <mxGeometry x="2914" y="380" width="320" height="90" as="geometry" />
        </mxCell>
        <mxCell id="6bt3RpJwYWjlod0nyT7_-124" value="&lt;b&gt;&lt;font style=&quot;font-size: 16px;&quot;&gt;242B&lt;/font&gt;&lt;/b&gt;" style="text;html=1;align=right;verticalAlign=top;whiteSpace=wrap;rounded=0;fontSize=20;" vertex="1" parent="1">
          <mxGeometry x="2855" y="450" width="60" height="30" as="geometry" />
        </mxCell>
        <mxCell id="6bt3RpJwYWjlod0nyT7_-155" style="rounded=0;orthogonalLoop=1;jettySize=auto;html=1;exitX=1;exitY=0;exitDx=0;exitDy=0;entryX=0;entryY=1;entryDx=0;entryDy=0;" edge="1" parent="1" source="6bt3RpJwYWjlod0nyT7_-125" target="6bt3RpJwYWjlod0nyT7_-141">
          <mxGeometry relative="1" as="geometry">
            <mxPoint x="3460" y="870" as="targetPoint" />
          </mxGeometry>
        </mxCell>
        <mxCell id="6bt3RpJwYWjlod0nyT7_-125" value="&lt;span style=&quot;font-size: 20px;&quot;&gt;undo 1&lt;/span&gt;" style="rounded=0;whiteSpace=wrap;html=1;fillColor=#1E2964;textShadow=1;fontColor=#FFFFFF;fontStyle=1" vertex="1" parent="1">
          <mxGeometry x="2914" y="470" width="320" height="40" as="geometry" />
        </mxCell>
        <mxCell id="6bt3RpJwYWjlod0nyT7_-126" value="" style="rounded=0;whiteSpace=wrap;html=1;fillColor=#1E2964;textShadow=1;fontColor=#FFFFFF;fontStyle=1" vertex="1" parent="1">
          <mxGeometry x="2915" y="510" width="99" height="40" as="geometry" />
        </mxCell>
        <mxCell id="6bt3RpJwYWjlod0nyT7_-127" value="&lt;span style=&quot;font-size: 20px;&quot;&gt;undo 2&lt;/span&gt;" style="rounded=0;whiteSpace=wrap;html=1;fillColor=#1E2964;textShadow=1;fontColor=#FFFFFF;fontStyle=1" vertex="1" parent="1">
          <mxGeometry x="3014" y="510" width="220" height="40" as="geometry" />
        </mxCell>
        <mxCell id="6bt3RpJwYWjlod0nyT7_-131" value="&lt;span style=&quot;font-size: 20px;&quot;&gt;&lt;b&gt;TRX_UNDO_TRX_ID&lt;/b&gt;&lt;/span&gt;" style="rounded=0;whiteSpace=wrap;html=1;fillColor=#B0AAC4;textShadow=1;fontColor=#000000;" vertex="1" parent="1">
          <mxGeometry x="3490" y="440" width="319" height="50" as="geometry" />
        </mxCell>
        <mxCell id="6bt3RpJwYWjlod0nyT7_-132" value="&lt;span style=&quot;font-size: 20px;&quot;&gt;&lt;b&gt;TRX_UNDO_TRX_NO&lt;/b&gt;&lt;/span&gt;" style="rounded=0;whiteSpace=wrap;html=1;fillColor=#B0AAC4;textShadow=1;fontColor=#000000;" vertex="1" parent="1">
          <mxGeometry x="3490" y="490" width="319" height="50" as="geometry" />
        </mxCell>
        <mxCell id="6bt3RpJwYWjlod0nyT7_-133" value="&lt;span style=&quot;font-size: 20px;&quot;&gt;&lt;b&gt;TRX_UNDO_DEL_MARKS&lt;/b&gt;&lt;/span&gt;" style="rounded=0;whiteSpace=wrap;html=1;fillColor=#B0AAC4;textShadow=1;fontColor=#000000;" vertex="1" parent="1">
          <mxGeometry x="3490" y="540" width="319" height="30" as="geometry" />
        </mxCell>
        <mxCell id="6bt3RpJwYWjlod0nyT7_-134" value="&lt;span style=&quot;font-size: 20px;&quot;&gt;&lt;b&gt;TRX_UNDO_LOG_START&lt;/b&gt;&lt;/span&gt;" style="rounded=0;whiteSpace=wrap;html=1;fillColor=#B0AAC4;textShadow=1;fontColor=#000000;" vertex="1" parent="1">
          <mxGeometry x="3490" y="570" width="319" height="30" as="geometry" />
        </mxCell>
        <mxCell id="6bt3RpJwYWjlod0nyT7_-135" value="&lt;span style=&quot;font-size: 20px;&quot;&gt;&lt;b&gt;TRX_UNDO_XID_EXISTS&lt;/b&gt;&lt;/span&gt;" style="rounded=0;whiteSpace=wrap;html=1;fillColor=#B0AAC4;textShadow=1;fontColor=#000000;" vertex="1" parent="1">
          <mxGeometry x="3490" y="600" width="319" height="30" as="geometry" />
        </mxCell>
        <mxCell id="6bt3RpJwYWjlod0nyT7_-136" value="&lt;span style=&quot;font-size: 20px;&quot;&gt;&lt;b&gt;TRX_UNDO_DICT_TRANS&lt;/b&gt;&lt;/span&gt;" style="rounded=0;whiteSpace=wrap;html=1;fillColor=#B0AAC4;textShadow=1;fontColor=#000000;" vertex="1" parent="1">
          <mxGeometry x="3490" y="630" width="319" height="30" as="geometry" />
        </mxCell>
        <mxCell id="6bt3RpJwYWjlod0nyT7_-137" value="&lt;span style=&quot;font-size: 20px;&quot;&gt;&lt;b&gt;TRX_UNDO_TABLE_ID&lt;/b&gt;&lt;/span&gt;" style="rounded=0;whiteSpace=wrap;html=1;fillColor=#B0AAC4;textShadow=1;fontColor=#000000;" vertex="1" parent="1">
          <mxGeometry x="3490" y="660" width="319" height="50" as="geometry" />
        </mxCell>
        <mxCell id="6bt3RpJwYWjlod0nyT7_-138" value="&lt;span style=&quot;font-size: 20px;&quot;&gt;&lt;b&gt;TRX_UNDO_NEXT_LOG&lt;/b&gt;&lt;/span&gt;" style="rounded=0;whiteSpace=wrap;html=1;fillColor=#B0AAC4;textShadow=1;fontColor=#000000;" vertex="1" parent="1">
          <mxGeometry x="3490" y="710" width="319" height="30" as="geometry" />
        </mxCell>
        <mxCell id="6bt3RpJwYWjlod0nyT7_-139" value="&lt;span style=&quot;font-size: 20px;&quot;&gt;&lt;b&gt;TRX_UNDO_PREV_LOG&lt;/b&gt;&lt;/span&gt;" style="rounded=0;whiteSpace=wrap;html=1;fillColor=#B0AAC4;textShadow=1;fontColor=#000000;" vertex="1" parent="1">
          <mxGeometry x="3490" y="740" width="319" height="30" as="geometry" />
        </mxCell>
        <mxCell id="6bt3RpJwYWjlod0nyT7_-140" value="&lt;span style=&quot;font-size: 20px;&quot;&gt;&lt;b&gt;TRX_UNDO_HISTORY_NODE&lt;/b&gt;&lt;/span&gt;" style="rounded=0;whiteSpace=wrap;html=1;fillColor=#B0AAC4;textShadow=1;fontColor=#000000;" vertex="1" parent="1">
          <mxGeometry x="3490" y="770" width="319" height="60" as="geometry" />
        </mxCell>
        <mxCell id="6bt3RpJwYWjlod0nyT7_-141" value="&lt;span style=&quot;font-size: 20px;&quot;&gt;&lt;b&gt;XID信息&lt;/b&gt;&lt;/span&gt;" style="rounded=0;whiteSpace=wrap;html=1;fillColor=#B0AAC4;textShadow=1;fontColor=#000000;" vertex="1" parent="1">
          <mxGeometry x="3490" y="830" width="319" height="80" as="geometry" />
        </mxCell>
        <mxCell id="6bt3RpJwYWjlod0nyT7_-142" value="&lt;b&gt;&lt;font style=&quot;font-size: 16px;&quot;&gt;56B&lt;/font&gt;&lt;/b&gt;" style="text;html=1;align=right;verticalAlign=top;whiteSpace=wrap;rounded=0;fontSize=20;" vertex="1" parent="1">
          <mxGeometry x="3430" y="425" width="60" height="30" as="geometry" />
        </mxCell>
        <mxCell id="6bt3RpJwYWjlod0nyT7_-143" value="&lt;b&gt;&lt;font style=&quot;font-size: 16px;&quot;&gt;64B&lt;/font&gt;&lt;/b&gt;" style="text;html=1;align=right;verticalAlign=top;whiteSpace=wrap;rounded=0;fontSize=20;" vertex="1" parent="1">
          <mxGeometry x="3430" y="470" width="60" height="30" as="geometry" />
        </mxCell>
        <mxCell id="6bt3RpJwYWjlod0nyT7_-144" value="&lt;b&gt;&lt;font style=&quot;font-size: 16px;&quot;&gt;72B&lt;/font&gt;&lt;/b&gt;" style="text;html=1;align=right;verticalAlign=top;whiteSpace=wrap;rounded=0;fontSize=20;" vertex="1" parent="1">
          <mxGeometry x="3430" y="520" width="60" height="30" as="geometry" />
        </mxCell>
        <mxCell id="6bt3RpJwYWjlod0nyT7_-145" value="&lt;b&gt;&lt;font style=&quot;font-size: 16px;&quot;&gt;74B&lt;/font&gt;&lt;/b&gt;" style="text;html=1;align=right;verticalAlign=top;whiteSpace=wrap;rounded=0;fontSize=20;" vertex="1" parent="1">
          <mxGeometry x="3430" y="550" width="60" height="30" as="geometry" />
        </mxCell>
        <mxCell id="6bt3RpJwYWjlod0nyT7_-146" value="&lt;b&gt;&lt;font style=&quot;font-size: 16px;&quot;&gt;76B&lt;/font&gt;&lt;/b&gt;" style="text;html=1;align=right;verticalAlign=top;whiteSpace=wrap;rounded=0;fontSize=20;" vertex="1" parent="1">
          <mxGeometry x="3430" y="580" width="60" height="30" as="geometry" />
        </mxCell>
        <mxCell id="6bt3RpJwYWjlod0nyT7_-147" value="&lt;b&gt;&lt;font style=&quot;font-size: 16px;&quot;&gt;77B&lt;/font&gt;&lt;/b&gt;" style="text;html=1;align=right;verticalAlign=top;whiteSpace=wrap;rounded=0;fontSize=20;" vertex="1" parent="1">
          <mxGeometry x="3430" y="610" width="60" height="30" as="geometry" />
        </mxCell>
        <mxCell id="6bt3RpJwYWjlod0nyT7_-148" value="&lt;b&gt;&lt;font style=&quot;font-size: 16px;&quot;&gt;78B&lt;/font&gt;&lt;/b&gt;" style="text;html=1;align=right;verticalAlign=top;whiteSpace=wrap;rounded=0;fontSize=20;" vertex="1" parent="1">
          <mxGeometry x="3430" y="640" width="60" height="30" as="geometry" />
        </mxCell>
        <mxCell id="6bt3RpJwYWjlod0nyT7_-149" value="&lt;b&gt;&lt;font style=&quot;font-size: 16px;&quot;&gt;86B&lt;/font&gt;&lt;/b&gt;" style="text;html=1;align=right;verticalAlign=top;whiteSpace=wrap;rounded=0;fontSize=20;" vertex="1" parent="1">
          <mxGeometry x="3430" y="690" width="60" height="30" as="geometry" />
        </mxCell>
        <mxCell id="6bt3RpJwYWjlod0nyT7_-150" value="&lt;b&gt;&lt;font style=&quot;font-size: 16px;&quot;&gt;88B&lt;/font&gt;&lt;/b&gt;" style="text;html=1;align=right;verticalAlign=top;whiteSpace=wrap;rounded=0;fontSize=20;" vertex="1" parent="1">
          <mxGeometry x="3430" y="720" width="60" height="30" as="geometry" />
        </mxCell>
        <mxCell id="6bt3RpJwYWjlod0nyT7_-151" value="&lt;b&gt;&lt;font style=&quot;font-size: 16px;&quot;&gt;90B&lt;/font&gt;&lt;/b&gt;" style="text;html=1;align=right;verticalAlign=top;whiteSpace=wrap;rounded=0;fontSize=20;" vertex="1" parent="1">
          <mxGeometry x="3430" y="750" width="60" height="30" as="geometry" />
        </mxCell>
        <mxCell id="6bt3RpJwYWjlod0nyT7_-152" value="&lt;b&gt;&lt;font style=&quot;font-size: 16px;&quot;&gt;102B&lt;/font&gt;&lt;/b&gt;" style="text;html=1;align=right;verticalAlign=top;whiteSpace=wrap;rounded=0;fontSize=20;" vertex="1" parent="1">
          <mxGeometry x="3430" y="810" width="60" height="30" as="geometry" />
        </mxCell>
        <mxCell id="6bt3RpJwYWjlod0nyT7_-153" value="&lt;b&gt;&lt;font style=&quot;font-size: 16px;&quot;&gt;242B&lt;/font&gt;&lt;/b&gt;" style="text;html=1;align=right;verticalAlign=top;whiteSpace=wrap;rounded=0;fontSize=20;" vertex="1" parent="1">
          <mxGeometry x="3430" y="890" width="60" height="30" as="geometry" />
        </mxCell>
        <mxCell id="6bt3RpJwYWjlod0nyT7_-156" value="" style="rounded=0;whiteSpace=wrap;html=1;" vertex="1" parent="1">
          <mxGeometry x="3977" y="270" width="320" height="520" as="geometry" />
        </mxCell>
        <mxCell id="6bt3RpJwYWjlod0nyT7_-157" value="&lt;font style=&quot;font-size: 20px;&quot;&gt;&lt;b&gt;File Header&lt;/b&gt;&lt;/font&gt;" style="rounded=0;whiteSpace=wrap;html=1;fillColor=#B0AAC4;textShadow=1;fontColor=#000000;" vertex="1" parent="1">
          <mxGeometry x="3977" y="270" width="320" height="60" as="geometry" />
        </mxCell>
        <mxCell id="6bt3RpJwYWjlod0nyT7_-158" value="&lt;span style=&quot;font-size: 20px;&quot;&gt;File Trailer&lt;/span&gt;" style="rounded=0;whiteSpace=wrap;html=1;fillColor=#6C615A;textShadow=1;fontColor=#FFFFFF;fontStyle=1" vertex="1" parent="1">
          <mxGeometry x="3977" y="759" width="320" height="30" as="geometry" />
        </mxCell>
        <mxCell id="6bt3RpJwYWjlod0nyT7_-173" style="edgeStyle=orthogonalEdgeStyle;rounded=0;orthogonalLoop=1;jettySize=auto;html=1;exitX=0;exitY=0.5;exitDx=0;exitDy=0;entryX=1;entryY=0.5;entryDx=0;entryDy=0;" edge="1" parent="1" source="6bt3RpJwYWjlod0nyT7_-159" target="6bt3RpJwYWjlod0nyT7_-109">
          <mxGeometry relative="1" as="geometry" />
        </mxCell>
        <mxCell id="6bt3RpJwYWjlod0nyT7_-186" style="edgeStyle=orthogonalEdgeStyle;rounded=0;orthogonalLoop=1;jettySize=auto;html=1;exitX=1;exitY=0.25;exitDx=0;exitDy=0;entryX=0;entryY=0.25;entryDx=0;entryDy=0;" edge="1" parent="1" source="6bt3RpJwYWjlod0nyT7_-159" target="6bt3RpJwYWjlod0nyT7_-177">
          <mxGeometry relative="1" as="geometry" />
        </mxCell>
        <mxCell id="6bt3RpJwYWjlod0nyT7_-159" value="&lt;span style=&quot;font-size: 20px;&quot;&gt;&lt;span&gt;Undo Page Header&lt;/span&gt;&lt;/span&gt;" style="rounded=0;whiteSpace=wrap;html=1;fillColor=#383A72;textShadow=1;fontColor=#FFFFFF;fontStyle=1" vertex="1" parent="1">
          <mxGeometry x="3977" y="330" width="320" height="50" as="geometry" />
        </mxCell>
        <mxCell id="6bt3RpJwYWjlod0nyT7_-160" value="" style="rounded=0;whiteSpace=wrap;html=1;fillColor=#C9C3BF;textShadow=1;fontColor=#000000;fontStyle=1" vertex="1" parent="1">
          <mxGeometry x="3977" y="380" width="320" height="380" as="geometry" />
        </mxCell>
        <mxCell id="6bt3RpJwYWjlod0nyT7_-161" value="&lt;b&gt;&lt;font style=&quot;font-size: 16px;&quot;&gt;0B&lt;/font&gt;&lt;/b&gt;" style="text;html=1;align=right;verticalAlign=top;whiteSpace=wrap;rounded=0;fontSize=20;" vertex="1" parent="1">
          <mxGeometry x="3918" y="250" width="60" height="30" as="geometry" />
        </mxCell>
        <mxCell id="6bt3RpJwYWjlod0nyT7_-162" value="&lt;b&gt;&lt;font style=&quot;font-size: 16px;&quot;&gt;38B&lt;/font&gt;&lt;/b&gt;" style="text;html=1;align=right;verticalAlign=top;whiteSpace=wrap;rounded=0;fontSize=20;" vertex="1" parent="1">
          <mxGeometry x="3918" y="310" width="60" height="30" as="geometry" />
        </mxCell>
        <mxCell id="6bt3RpJwYWjlod0nyT7_-163" value="&lt;b&gt;&lt;font style=&quot;font-size: 16px;&quot;&gt;56B&lt;/font&gt;&lt;/b&gt;" style="text;html=1;align=right;verticalAlign=top;whiteSpace=wrap;rounded=0;fontSize=20;" vertex="1" parent="1">
          <mxGeometry x="3917" y="360" width="60" height="30" as="geometry" />
        </mxCell>
        <mxCell id="6bt3RpJwYWjlod0nyT7_-164" value="&lt;b&gt;&lt;font style=&quot;font-size: 16px;&quot;&gt;16376B&lt;/font&gt;&lt;/b&gt;" style="text;html=1;align=right;verticalAlign=top;whiteSpace=wrap;rounded=0;fontSize=20;" vertex="1" parent="1">
          <mxGeometry x="3918" y="740" width="60" height="30" as="geometry" />
        </mxCell>
        <mxCell id="6bt3RpJwYWjlod0nyT7_-165" value="&lt;b&gt;&lt;font style=&quot;font-size: 16px;&quot;&gt;16KB&lt;/font&gt;&lt;/b&gt;" style="text;html=1;align=right;verticalAlign=top;whiteSpace=wrap;rounded=0;fontSize=20;" vertex="1" parent="1">
          <mxGeometry x="3918" y="770" width="60" height="30" as="geometry" />
        </mxCell>
        <mxCell id="6bt3RpJwYWjlod0nyT7_-166" value="FIL_PAGE_UNDO_LOG" style="text;html=1;align=center;verticalAlign=middle;whiteSpace=wrap;rounded=0;fontStyle=1;fontSize=20;" vertex="1" parent="1">
          <mxGeometry x="3977" y="220" width="320" height="50" as="geometry" />
        </mxCell>
        <mxCell id="6bt3RpJwYWjlod0nyT7_-174" value="" style="rounded=0;whiteSpace=wrap;html=1;" vertex="1" parent="1">
          <mxGeometry x="4510" y="270" width="320" height="520" as="geometry" />
        </mxCell>
        <mxCell id="6bt3RpJwYWjlod0nyT7_-175" value="&lt;font style=&quot;font-size: 20px;&quot;&gt;&lt;b&gt;File Header&lt;/b&gt;&lt;/font&gt;" style="rounded=0;whiteSpace=wrap;html=1;fillColor=#B0AAC4;textShadow=1;fontColor=#000000;" vertex="1" parent="1">
          <mxGeometry x="4510" y="270" width="320" height="60" as="geometry" />
        </mxCell>
        <mxCell id="6bt3RpJwYWjlod0nyT7_-176" value="&lt;span style=&quot;font-size: 20px;&quot;&gt;File Trailer&lt;/span&gt;" style="rounded=0;whiteSpace=wrap;html=1;fillColor=#6C615A;textShadow=1;fontColor=#FFFFFF;fontStyle=1" vertex="1" parent="1">
          <mxGeometry x="4510" y="759" width="320" height="30" as="geometry" />
        </mxCell>
        <mxCell id="6bt3RpJwYWjlod0nyT7_-187" style="edgeStyle=orthogonalEdgeStyle;rounded=0;orthogonalLoop=1;jettySize=auto;html=1;exitX=0;exitY=0.5;exitDx=0;exitDy=0;entryX=1;entryY=0.5;entryDx=0;entryDy=0;" edge="1" parent="1" source="6bt3RpJwYWjlod0nyT7_-177" target="6bt3RpJwYWjlod0nyT7_-159">
          <mxGeometry relative="1" as="geometry" />
        </mxCell>
        <mxCell id="6bt3RpJwYWjlod0nyT7_-177" value="&lt;span style=&quot;font-size: 20px;&quot;&gt;&lt;span&gt;Undo Page Header&lt;/span&gt;&lt;/span&gt;" style="rounded=0;whiteSpace=wrap;html=1;fillColor=#383A72;textShadow=1;fontColor=#FFFFFF;fontStyle=1" vertex="1" parent="1">
          <mxGeometry x="4510" y="330" width="320" height="50" as="geometry" />
        </mxCell>
        <mxCell id="6bt3RpJwYWjlod0nyT7_-178" value="" style="rounded=0;whiteSpace=wrap;html=1;fillColor=#C9C3BF;textShadow=1;fontColor=#000000;fontStyle=1" vertex="1" parent="1">
          <mxGeometry x="4510" y="380" width="320" height="380" as="geometry" />
        </mxCell>
        <mxCell id="6bt3RpJwYWjlod0nyT7_-179" value="&lt;b&gt;&lt;font style=&quot;font-size: 16px;&quot;&gt;0B&lt;/font&gt;&lt;/b&gt;" style="text;html=1;align=right;verticalAlign=top;whiteSpace=wrap;rounded=0;fontSize=20;" vertex="1" parent="1">
          <mxGeometry x="4451" y="250" width="60" height="30" as="geometry" />
        </mxCell>
        <mxCell id="6bt3RpJwYWjlod0nyT7_-180" value="&lt;b&gt;&lt;font style=&quot;font-size: 16px;&quot;&gt;38B&lt;/font&gt;&lt;/b&gt;" style="text;html=1;align=right;verticalAlign=top;whiteSpace=wrap;rounded=0;fontSize=20;" vertex="1" parent="1">
          <mxGeometry x="4451" y="310" width="60" height="30" as="geometry" />
        </mxCell>
        <mxCell id="6bt3RpJwYWjlod0nyT7_-181" value="&lt;b&gt;&lt;font style=&quot;font-size: 16px;&quot;&gt;56B&lt;/font&gt;&lt;/b&gt;" style="text;html=1;align=right;verticalAlign=top;whiteSpace=wrap;rounded=0;fontSize=20;" vertex="1" parent="1">
          <mxGeometry x="4450" y="360" width="60" height="30" as="geometry" />
        </mxCell>
        <mxCell id="6bt3RpJwYWjlod0nyT7_-182" value="&lt;b&gt;&lt;font style=&quot;font-size: 16px;&quot;&gt;16376B&lt;/font&gt;&lt;/b&gt;" style="text;html=1;align=right;verticalAlign=top;whiteSpace=wrap;rounded=0;fontSize=20;" vertex="1" parent="1">
          <mxGeometry x="4451" y="740" width="60" height="30" as="geometry" />
        </mxCell>
        <mxCell id="6bt3RpJwYWjlod0nyT7_-183" value="&lt;b&gt;&lt;font style=&quot;font-size: 16px;&quot;&gt;16KB&lt;/font&gt;&lt;/b&gt;" style="text;html=1;align=right;verticalAlign=top;whiteSpace=wrap;rounded=0;fontSize=20;" vertex="1" parent="1">
          <mxGeometry x="4451" y="770" width="60" height="30" as="geometry" />
        </mxCell>
        <mxCell id="6bt3RpJwYWjlod0nyT7_-184" value="FIL_PAGE_UNDO_LOG" style="text;html=1;align=center;verticalAlign=middle;whiteSpace=wrap;rounded=0;fontStyle=1;fontSize=20;" vertex="1" parent="1">
          <mxGeometry x="4510" y="220" width="320" height="50" as="geometry" />
        </mxCell>
      </root>
    </mxGraphModel>
  </diagram>
</mxfile>
